<?xml version="1.0" encoding="utf-8"?>
<!-- Generator: Adobe Illustrator 21.0.2, SVG Export Plug-In . SVG Version: 6.00 Build 0)  -->
<svg version="1.1" id="Layer_1" xmlns="http://www.w3.org/2000/svg" xmlns:xlink="http://www.w3.org/1999/xlink" x="0px" y="0px"
	 viewBox="0 0 176.2 26.6" style="enable-background:new 0 0 176.2 26.6;" xml:space="preserve">
<style type="text/css">
	.st0{fill:#009B3E;}
	.st1{fill:#FFFFFF;}
</style>
<g>
	<path class="st0" d="M20.5,0.8c0,1.7-0.1,3.4-0.2,5.1c-1.7-0.2-3.5-0.5-5.5-0.6c-2.4-0.1-5.1,0.1-6.2,1.6C7.7,8.1,7.3,10.3,7,12.2
		c-0.2,1.1-0.3,2.1-0.4,3c-0.2,1.2-0.4,3,0,4.1c0.2,0.5,0.7,1.1,1.2,1.3c1.2,0.7,3,0.6,4.8,0.6c0.4-1.8,0.5-3.8,0.9-5.7
		c-1.3,0-2.6,0-3.9,0c0.4-1.6,0.8-3.2,1.2-4.8c3.2,0,6.4,0,9.7,0c-0.6,5-1.4,9.9-2,14.8c-3.8,0.8-9.2,1.6-13.1,0.2
		c-1.8-0.6-3.3-1.7-4.2-3.2s-1.3-3.7-1.1-6.1C0.3,14.2,0.6,12,1,10c0.4-2.1,1-3.9,2.1-5.2C5.3,2,8.2,0.3,13,0
		C15.6,0,18.1,0.4,20.5,0.8z"/>
	<path class="st1" d="M129.3,12.8c0.6,0.5,1.2,1,1.6,1.7c0.4,0.6,0.7,1.4,0.8,2.4c0.1,1.3-0.1,2.6-0.4,3.5c-1.1,3.8-4.7,6.2-9.6,6.2
		c-3.7,0-7.7-0.3-11.4-0.3c1.2-8.6,2.4-17.3,3.6-26c4,0.1,7.7-0.4,11.7-0.2c2.7,0.2,5.1,1.2,6.1,2.8c1.5,2.5,0.8,6.6-1,8.6
		C130.4,12,129.9,12.4,129.3,12.8z M125.8,10.1c0.8-0.8,1.2-3,0.4-4c-1.1-1.4-4.2-0.6-6.4-0.8c-0.2,1.8-0.5,3.6-0.8,5.5
		C121.5,10.6,124.6,11.3,125.8,10.1z M118.4,15.7c-0.2,1.8-0.5,3.6-0.8,5.5c1.5,0,3.1,0.2,4.6,0.2c1.3-0.1,2.5-0.6,3.1-1.5
		c0.5-0.7,0.7-2,0.3-3.1c-0.2-0.5-1-1.1-1.7-1.2C122.4,15.4,120.2,15.8,118.4,15.7C118.4,15.5,118.4,15.6,118.4,15.7z"/>
	<path class="st0" d="M39.2,17.2c3.2,1.3,3.4,5.6,4.5,9.1c-2.3,0-4.6,0-6.9,0c-0.2-1.1-0.5-2.3-0.9-3.4c-0.3-1.1-0.6-2.3-1.2-3
		c-0.9-1.1-2.6-1.3-4.7-1.2c-0.4,2.5-0.8,5-1.1,7.6c-2.2,0-4.4,0-6.5,0c1.2-8.7,2.4-17.4,3.6-26c4,0,7.9-0.3,12-0.2
		c4.3,0.1,6.6,2,6.7,6.5c0,1.2-0.2,2.5-0.4,3.6C43.7,13.7,42.2,16.1,39.2,17.2z M37.8,12.5c0.4-0.7,0.6-1.5,0.7-2.6
		c0.1-0.7,0.2-1.5,0.3-2.1c0-0.5,0-1.4-0.1-1.8c-0.7-1.7-4.6-1.1-6.8-1c-0.4,2.9-0.8,5.9-1.2,8.8C33.7,14,36.5,14.5,37.8,12.5z"/>
	<path class="st0" d="M50.7,0.2c5.1,0,10.1,0,15.2,0c-0.2,1.7-0.5,3.4-0.7,5.1c-2.8,0-5.6,0-8.5,0c-0.3,1.8-0.5,3.7-0.8,5.5
		c2.3,0,4.5,0,6.8,0c-0.3,1.6-0.7,3.2-1.1,4.8c-2.1,0-4.2,0-6.3,0c-0.3,1.8-0.5,3.7-0.8,5.6c2.8,0,5.7,0,8.5,0
		c-0.1,1.6-0.5,3.5-0.7,5.1c-5.1,0-10.2,0-15.2,0C48.2,17.7,49.4,8.9,50.7,0.2z"/>
	<path class="st0" d="M69.9,0.2c5,0,10.1,0,15.1,0c-0.2,1.7-0.4,3.4-0.7,5.1c-2.8,0-5.6,0-8.5,0C75.5,7.1,75.3,9,75,10.8
		c2.3,0,4.5,0,6.8,0c-0.3,1.7-0.7,3.1-1,4.8c-2.1,0-4.2,0-6.3,0c-0.4,1.7-0.5,3.8-0.9,5.6c2.8,0,5.7,0,8.5,0
		c-0.2,1.7-0.5,3.4-0.7,5.1c-5.1,0-10.2,0-15.2,0c1.1-8.7,2.4-17.3,3.6-25.9C69.8,0.3,69.8,0.3,69.9,0.2z"/>
	<path class="st1" d="M137.9,0.2c5.1,0,10.1,0,15.2,0c-0.2,1.7-0.5,3.4-0.7,5.1c-2.8,0-5.6,0-8.5,0c-0.3,1.7-0.5,3.6-0.8,5.4
		c2.1,0.1,4.5,0,6.8,0.1c-0.3,1.6-0.7,3.2-1.1,4.8c-2.1,0-4.2,0-6.3,0c-0.3,1.8-0.5,3.7-0.8,5.6c2.8,0,5.6,0,8.5,0
		c-0.2,1.8-0.5,3.4-0.7,5.1c-5.1,0-10.2,0-15.2,0C135.5,17.7,136.6,8.8,137.9,0.2z"/>
	<path class="st0" d="M88.9,0.3c2.2,0,4.4,0,6.6,0c1.9,4.6,3.9,9,5.8,13.6c0.8-4.4,1.3-9.1,2-13.6c2.2,0,4.4,0,6.7,0
		c-1.2,8.7-2.4,17.3-3.6,26c-2.2,0-4.5,0-6.7,0c-2-4.6-3.9-9.1-5.8-13.8c-0.8,4.5-1.3,9.2-2,13.8c-2.2,0-4.4,0-6.7,0
		c1.2-8.6,2.4-17.2,3.6-25.9C88.8,0.4,88.9,0.3,88.9,0.3z"/>
	<path class="st1" d="M176.2,0.3c0,0.1,0,0.1,0,0.2c-0.3,1.6-0.5,3.2-0.7,4.8c-2.1,0-4.1,0-6.2,0c0,0-0.1,0-0.1,0.1
		c-1,6.9-1.9,14-3,20.9c-2.2,0-4.4,0-6.7,0c0.9-7,2-14,2.9-21c-2,0-4.2,0.1-6.1-0.1c0.3-1.7,0.4-3.5,0.8-5
		C163.6,0.3,169.9,0.3,176.2,0.3z"/>
</g>
</svg>
